<?xml version="1.0" standalone="no"?>
<!DOCTYPE svg PUBLIC "-//W3C//DTD SVG 20010904//EN"
 "http://www.w3.org/TR/2001/REC-SVG-20010904/DTD/svg10.dtd">
<svg version="1.0" xmlns="http://www.w3.org/2000/svg"
 width="300.000000pt" height="95.000000pt" viewBox="0 0 300.000000 95.000000"
 preserveAspectRatio="xMidYMid meet">
<metadata>
Created by potrace 1.10, written by Peter Selinger 2001-2011
</metadata>
<g transform="translate(0.000000,95.000000) scale(0.100000,-0.100000)"
fill="#000000" stroke="none">
<path d="M1284 746 c-125 -58 -184 -210 -138 -354 22 -67 65 -117 128 -149 71
-37 189 -39 258 -4 101 49 154 149 146 275 -6 82 -28 133 -83 188 -71 70 -212
90 -311 44z m-21 -78 c-97 -102 -99 -246 -5 -345 16 -18 24 -33 17 -33 -39 0
-105 127 -105 202 0 52 38 141 75 176 19 17 38 32 42 32 4 0 -7 -15 -24 -32z
m307 -4 c100 -90 89 -294 -20 -363 -21 -13 -20 -10 9 23 46 54 61 95 61 168 0
74 -25 136 -71 179 -17 16 -28 29 -25 29 3 0 24 -16 46 -36z m-63 -10 c16 -12
38 -38 51 -60 19 -33 22 -51 20 -111 -4 -80 -20 -111 -78 -150 -47 -32 -143
-32 -191 0 -109 72 -101 273 12 331 47 23 148 18 186 -10z"/>
<path d="M2118 763 l-57 -4 -98 -109 -98 -110 -3 110 -3 110 -49 0 -50 0 0
-270 0 -270 50 0 49 0 3 120 3 119 110 -119 110 -118 63 -1 c34 -1 62 2 62 5
0 3 -58 67 -130 142 l-129 135 119 127 c112 119 131 143 113 138 -5 -1 -34 -3
-65 -5z m-298 -137 c0 -64 3 -75 25 -96 l25 -24 32 24 31 23 -7 -27 c-4 -16
-1 -38 9 -56 22 -43 19 -45 -20 -11 -20 17 -39 31 -42 31 -4 0 -17 -10 -30
-22 -20 -19 -23 -31 -23 -94 0 -40 -4 -76 -10 -79 -7 -4 -10 67 -10 205 0 138
3 209 10 205 6 -3 10 -39 10 -79z m229 -287 c30 -33 52 -59 50 -59 -3 0 -34
29 -69 66 -36 36 -58 62 -50 58 8 -4 39 -33 69 -65z"/>
<path d="M2618 597 l-3 -169 -130 166 -130 166 -42 0 -43 0 0 -270 0 -270 50
0 50 0 0 188 c1 167 2 185 15 167 9 -11 73 -95 143 -187 117 -154 129 -167
160 -167 l32 -1 0 273 0 272 -50 0 -50 0 -2 -168z m-203 18 c37 -49 56 -78 42
-64 -13 15 -36 35 -52 45 -27 18 -28 18 -51 -10 -23 -26 -24 -35 -24 -162 0
-83 -4 -134 -10 -134 -11 0 -15 412 -4 423 12 12 33 -8 99 -98z m265 -120 c0
-112 -4 -206 -9 -209 -5 -3 -44 40 -86 96 -105 140 -106 140 -49 81 92 -97
124 -65 124 127 0 78 4 119 10 115 6 -4 10 -85 10 -210z"/>
<path d="M60 489 l0 -272 163 5 c203 6 246 21 278 94 31 70 14 134 -46 174
l-25 17 24 12 c48 26 61 111 26 169 -36 59 -82 72 -262 72 l-158 0 0 -271z
m100 223 c0 -5 -9 -17 -20 -27 -16 -14 -20 -31 -20 -75 0 -44 4 -61 20 -75 25
-23 25 -31 0 -62 -15 -19 -20 -41 -20 -84 0 -48 5 -63 27 -89 l26 -31 -34 3
-34 3 -3 210 c-1 115 0 215 2 222 6 14 56 18 56 5z m251 -12 c29 -16 51 -67
44 -101 -9 -41 -22 -44 -17 -5 3 26 -3 41 -27 68 -41 47 -41 60 0 38z m-34
-52 c27 -26 30 -59 5 -81 -12 -11 -43 -16 -120 -19 l-102 -3 0 63 0 62 97 0
c86 0 99 -3 120 -22z m36 -133 c-4 -17 4 -36 26 -64 47 -59 43 -129 -10 -156
-45 -24 -50 -18 -14 18 63 63 54 112 -28 166 l-37 24 28 18 c36 24 40 23 35
-6z m-48 -69 c43 -18 62 -54 45 -85 -17 -32 -50 -41 -156 -41 l-94 0 0 70 0
70 85 0 c52 0 99 -6 120 -14z"/>
<path d="M590 490 l0 -270 50 0 50 0 0 110 0 110 135 0 135 0 0 -110 0 -110
50 0 50 0 0 270 0 270 -50 0 -50 0 0 -112 0 -113 -135 0 -135 0 0 113 0 112
-50 0 -50 0 0 -270z m89 26 l24 -25 -27 -31 c-23 -27 -26 -41 -26 -101 0 -44
-4 -68 -10 -64 -6 4 -10 83 -10 204 0 205 11 277 20 128 4 -72 9 -89 29 -111z
m332 -126 c-8 -90 -8 -92 -10 -28 -1 56 -5 71 -27 97 l-26 31 26 31 c23 27 26
40 27 107 2 74 2 73 10 -33 4 -60 4 -152 0 -205z"/>
<path d="M2810 490 l0 -270 50 0 49 0 3 270 3 270 -52 0 -53 0 0 -270z"/>
</g>
</svg>
